<?xml version="1.0" encoding="UTF-8" standalone="no"?>
<svg xmlns="http://www.w3.org/2000/svg" xmlns:xlink="http://www.w3.org/1999/xlink" width="62" height="62" version="1.0">
  <defs>
    <linearGradient xlink:href="#a" id="c" x1="42.986301" x2="22.0144" y1="7.0127001" y2="51.987099" gradientUnits="userSpaceOnUse">
      <stop offset="0" stop-color="#c4febc"/>
      <stop offset="1" stop-color="#69d467"/>
    </linearGradient>
    <linearGradient id="a" x1="55.454102" x2="9.5471001" y1="42.752899" y2="16.248501" gradientUnits="userSpaceOnUse">
      <stop offset="0" stop-color="#35a730"/>
      <stop offset="1" stop-color="#5cc65a"/>
    </linearGradient>
    <radialGradient id="b">
      <stop offset="0" stop-color="silver"/>
      <stop offset=".88" stop-color="silver"/>
      <stop offset="1" stop-color="silver" stop-opacity="0"/>
    </radialGradient>
    <filter id="d" color-interpolation-filters="sRGB">
      <feColorMatrix result="fbSourceGraphic" values="0.21 0.72 0.072 0 0 0.21 0.72 0.072 0 0 0.21 0.72 0.072 0 0 0 0 0 1 0"/>
      <feColorMatrix in="fbSourceGraphic" result="fbSourceGraphicAlpha" values="0 0 0 -1 0 0 0 0 -1 0 0 0 0 -1 0 0 0 0 1 0"/>
      <feColorMatrix in="fbSourceGraphic" values="0.21 0.72 0.072 0 0 0.21 0.72 0.072 0 0 0.21 0.72 0.072 0 0 0 0 0 1 0"/>
    </filter>
  </defs>
  <circle cx="32.5" cy="29.5" r="26.5" fill="url(#b)" transform="matrix(1.0648 0 0 1.06482 -2.1 1.0864)"/>
  <circle cx="31" cy="31" r="25.799999" fill="url(#c)" stroke="url(#a)" stroke-width="2" filter="url(#d)"/>
  <path fill="#fff" fill-rule="evenodd" d="M49.404186 31.000004S38.578784 22.94769 34.868988 19.979849c-.950014-.760013-3.372547-.189999-2.612537 2.090021.570009 1.710024 1.615022 4.940072 1.615022 4.940072l-19.665269-.902511v9.785127l19.665269-.902511s-1.045013 3.230048-1.615022 4.940073c-.76001 2.280036 1.662523 2.850033 2.612537 2.09004 3.709796-2.967844 14.535198-11.020156 14.535198-11.020156z"/>
</svg>